<svg width="19" height="19" viewBox="0 0 19 19" fill="none" xmlns="http://www.w3.org/2000/svg">
<g clip-path="url(#clip0)">
<path d="M15.3599 2.31323H14.6099V1.56323C14.6099 1.15073 14.2724 0.813232 13.8599 0.813232C13.4474 0.813232 13.1099 1.15073 13.1099 1.56323V2.31323H5.60986V1.56323C5.60986 1.15073 5.27236 0.813232 4.85986 0.813232C4.44736 0.813232 4.10986 1.15073 4.10986 1.56323V2.31323H3.35986C2.53486 2.31323 1.85986 2.98823 1.85986 3.81323V15.8132C1.85986 16.6382 2.53486 17.3132 3.35986 17.3132H15.3599C16.1849 17.3132 16.8599 16.6382 16.8599 15.8132V3.81323C16.8599 2.98823 16.1849 2.31323 15.3599 2.31323ZM14.6099 15.8132H4.10986C3.69736 15.8132 3.35986 15.4757 3.35986 15.0632V6.06323H15.3599V15.0632C15.3599 15.4757 15.0224 15.8132 14.6099 15.8132Z" fill="#333333"/>
</g>
<defs>
<clipPath id="clip0">
<rect width="18" height="18" fill="white" transform="translate(0.359863 0.0632324)"/>
</clipPath>
</defs>
</svg>
